<svg width="61" height="61" viewBox="0 0 61 61" fill="none" xmlns="http://www.w3.org/2000/svg">
<mask id="mask0_7_212" style="mask-type:alpha" maskUnits="userSpaceOnUse" x="0" y="0" width="61" height="61">
<rect width="61" height="61" fill="#F8F8F8"/>
</mask>
<g mask="url(#mask0_7_212)">
<path d="M15.25 50.615C13.3437 50.615 11.4587 50.1588 9.59479 49.2465C7.7309 48.3341 6.22708 47.1314 5.08333 45.6385C6.18472 45.6385 7.30729 45.2134 8.45104 44.3632C9.59479 43.5131 10.1667 42.2793 10.1667 40.6619C10.1667 38.5884 10.908 36.8259 12.3906 35.3744C13.8733 33.9229 15.6736 33.1971 17.7917 33.1971C19.9097 33.1971 21.7101 33.9229 23.1927 35.3744C24.6753 36.8259 25.4167 38.5884 25.4167 40.6619C25.4167 43.399 24.4212 45.7422 22.4302 47.6913C20.4392 49.6405 18.0458 50.615 15.25 50.615ZM15.25 45.6385C16.6479 45.6385 17.8446 45.1512 18.8401 44.1766C19.8356 43.2021 20.3333 42.0305 20.3333 40.6619C20.3333 39.9569 20.0898 39.366 19.6026 38.889C19.1154 38.4121 18.5118 38.1737 17.7917 38.1737C17.0715 38.1737 16.4679 38.4121 15.9807 38.889C15.4936 39.366 15.25 39.9569 15.25 40.6619C15.25 41.6158 15.1335 42.4867 14.9005 43.2746C14.6675 44.0626 14.3604 44.8091 13.9792 45.5141C14.191 45.597 14.4028 45.6385 14.6146 45.6385H15.25ZM29.8646 35.6854L22.875 28.8427L45.6229 6.57264C46.0889 6.11646 46.6714 5.878 47.3703 5.85726C48.0693 5.83653 48.6729 6.07499 49.1812 6.57264L52.6125 9.9318C53.1208 10.4295 53.375 11.0101 53.375 11.6736C53.375 12.3371 53.1208 12.9177 52.6125 13.4154L29.8646 35.6854Z" fill="#F8F8F8"/>
</g>
</svg>
