<svg width="61" height="60" viewBox="0 0 61 60" fill="none" xmlns="http://www.w3.org/2000/svg">
<path d="M0 59.7185V43.13H13.5556L27.1111 29.8592V19.2426C25.0778 18.5238 23.4398 17.3211 22.1972 15.6346C20.9546 13.9481 20.3333 12.0543 20.3333 9.95308C20.3333 7.18834 21.3218 4.8383 23.2986 2.90298C25.2755 0.96766 27.6759 0 30.5 0C33.3241 0 35.7245 0.96766 37.7014 2.90298C39.6782 4.8383 40.6667 7.18834 40.6667 9.95308C40.6667 12.0543 40.0454 13.9481 38.8028 15.6346C37.5602 17.3211 35.9222 18.5238 33.8889 19.2426V29.8592L47.4444 43.13H61V59.7185H44.0556V49.5995L30.5 36.3287L16.9444 49.5995V59.7185H0Z" fill="white"/>
</svg>
