<svg width="56" height="60" viewBox="0 0 56 60" fill="none" xmlns="http://www.w3.org/2000/svg">
<path d="M24.3557 52.4655L25.1008 52.8846V52.0297V31.5761V31.2837L24.8459 31.1403L6.39529 20.7643L5.65021 20.3452V21.2001V41.6536V41.9461L5.90512 42.0895L24.3557 52.4655ZM30.251 52.0297V52.8846L30.9961 52.4655L49.4467 42.0895L49.7016 41.9461V41.6536V21.2001V20.3452L48.9566 20.7643L30.5059 31.1403L30.251 31.2837V31.5761V52.0297ZM27.4312 26.8614L27.6759 26.9988L27.9207 26.8614L46.1406 16.6347L46.9174 16.1986L46.1406 15.7626L27.9207 5.53584L27.6759 5.39847L27.4312 5.53584L9.21121 15.7626L8.43441 16.1986L9.21121 16.6347L27.4312 26.8614ZM24.8446 1.2577L24.8458 1.25698C25.7478 0.749957 26.6888 0.5 27.6759 0.5C28.6631 0.5 29.6041 0.749958 30.506 1.25698L30.5073 1.25769L52.0317 13.2753C52.0319 13.2754 52.0321 13.2755 52.0322 13.2756C52.9355 13.7835 53.6258 14.4456 54.116 15.2618C54.6052 16.076 54.8519 16.9816 54.8519 17.9902V41.7283C54.8519 42.7369 54.6052 43.6425 54.116 44.4567C53.6258 45.2728 52.9355 45.935 52.0322 46.4429C52.0321 46.443 52.0319 46.4431 52.0317 46.4432L30.5073 58.4608L30.506 58.4615C29.6041 58.9685 28.6631 59.2185 27.6759 59.2185C26.6888 59.2185 25.7478 58.9685 24.8458 58.4615L24.8446 58.4608L3.32012 46.4432C3.31988 46.443 3.31965 46.4429 3.31941 46.4428C2.41621 45.9349 1.72607 45.2728 1.23582 44.4567C0.746666 43.6425 0.5 42.7369 0.5 41.7283V17.9902C0.5 16.9816 0.746666 16.076 1.23582 15.2618C1.72606 14.4457 2.4162 13.7836 3.31938 13.2757C3.31962 13.2756 3.31987 13.2755 3.32012 13.2753L24.8446 1.2577Z" fill="white" stroke="#759FF1"/>
</svg>
