<svg width="64" height="64" viewBox="0 0 64 64" fill="none" xmlns="http://www.w3.org/2000/svg">
<mask id="mask0_7_226" style="mask-type:alpha" maskUnits="userSpaceOnUse" x="0" y="0" width="64" height="64">
<rect width="64" height="64" fill="#D9D9D9"/>
</mask>
<g mask="url(#mask0_7_226)">
<path d="M24.2614 59.1263C22.1356 59.1263 20.2294 58.5834 18.5426 57.4976C16.8559 56.4118 15.5504 54.9189 14.6261 53.0187C13.8867 53.9688 12.9509 54.704 11.8188 55.2243C10.6866 55.7445 9.5197 56.0047 8.31818 56.0047C5.96136 56.0047 3.9858 55.213 2.39148 53.6295C0.797159 52.0461 0 50.1233 0 47.8612C0 45.9159 0.64697 44.1628 1.94091 42.6019C3.23485 41.0411 4.87538 40.1476 6.8625 39.9214C6.21553 39.0166 5.71875 38.0552 5.37216 37.0373C5.02557 36.0193 4.85227 34.9449 4.85227 33.8138C4.85227 32.0042 5.32595 30.3076 6.2733 28.7242C7.22064 27.1407 8.54924 25.8514 10.2591 24.8561C10.4902 25.6704 10.8021 26.5413 11.1949 27.4687C11.5877 28.3962 12.0383 29.1992 12.5466 29.8778C11.8996 30.3755 11.3913 30.9749 11.0216 31.6762C10.6519 32.3774 10.467 33.1126 10.467 33.8817C10.467 36.4152 11.5299 37.976 13.6557 38.5642C15.7814 39.1523 17.7917 39.6273 19.6864 39.9893L21.0034 42.1608C20.4951 43.6086 20.0561 44.8414 19.6864 45.8593C19.3167 46.8773 19.1318 47.7934 19.1318 48.6077C19.1318 49.965 19.6286 51.1525 20.6222 52.1705C21.6157 53.1884 22.8288 53.6974 24.2614 53.6974C26.0174 53.6974 27.4731 52.9283 28.6284 51.3901C29.7837 49.8519 30.7311 48.0422 31.4705 45.9611C32.2099 43.88 32.7759 41.7763 33.1688 39.65C33.5616 37.5236 33.8735 35.8949 34.1045 34.7639L39.5114 36.189C39.0955 38.2249 38.5871 40.5548 37.9864 43.1788C37.3856 45.8028 36.5422 48.3023 35.4562 50.6775C34.3703 53.0527 32.9377 55.0546 31.1585 56.6833C29.3794 58.312 27.0803 59.1263 24.2614 59.1263ZM8.31818 50.5757C9.10379 50.5757 9.76231 50.3156 10.2937 49.7953C10.8252 49.275 11.0909 48.6303 11.0909 47.8612C11.0909 47.0921 10.8252 46.4475 10.2937 45.9272C9.76231 45.4069 9.10379 45.1468 8.31818 45.1468C7.53258 45.1468 6.87405 45.4069 6.34261 45.9272C5.81117 46.4475 5.54545 47.0921 5.54545 47.8612C5.54545 48.6303 5.81117 49.275 6.34261 49.7953C6.87405 50.3156 7.53258 50.5757 8.31818 50.5757ZM28.0045 39.8535C25.8788 37.9986 23.9494 36.2682 22.2165 34.6621C20.4835 33.056 18.9932 31.4952 17.7455 29.9796C16.4977 28.464 15.5388 26.9485 14.8688 25.4329C14.1987 23.9173 13.8636 22.3452 13.8636 20.7165C13.8636 17.7758 14.8919 15.2988 16.9483 13.2856C19.0047 11.2724 21.5348 10.2657 24.5386 10.2657C24.7235 10.2657 24.8852 10.2771 25.0239 10.2997C25.1625 10.3223 25.3242 10.3336 25.5091 10.3336C25.3242 9.88119 25.1856 9.42878 25.0932 8.97637C25.0008 8.52395 24.9545 8.04892 24.9545 7.55127C24.9545 5.2892 25.7633 3.36645 27.3807 1.783C28.9981 0.199559 30.9621 -0.592163 33.2727 -0.592163C35.5833 -0.592163 37.5473 0.199559 39.1648 1.783C40.7822 3.36645 41.5909 5.2892 41.5909 7.55127C41.5909 8.04892 41.5447 8.51264 41.4523 8.94244C41.3598 9.37223 41.2212 9.81333 41.0364 10.2657H42.0068C44.7795 10.2657 47.1364 11.1366 49.0773 12.8784C51.0182 14.6202 52.1735 16.7805 52.5432 19.3592C51.7114 19.2235 50.7756 19.1557 49.7358 19.1557C48.696 19.1557 47.7371 19.2009 46.8591 19.2914C46.5356 18.2508 45.9464 17.3912 45.0915 16.7126C44.2366 16.034 43.2083 15.6947 42.0068 15.6947C40.3894 15.6947 39.1301 16.1584 38.229 17.0859C37.3278 18.0133 36.0917 19.3592 34.5205 21.1236H31.9557C30.3383 19.2688 29.079 17.9002 28.1778 17.018C27.2767 16.1358 26.0636 15.6947 24.5386 15.6947C23.0598 15.6947 21.8352 16.1697 20.8648 17.1198C19.8943 18.0699 19.4091 19.2688 19.4091 20.7165C19.4091 21.757 19.7095 22.8315 20.3102 23.9399C20.911 25.0483 21.7544 26.2246 22.8403 27.4687C23.9263 28.7129 25.2434 30.0362 26.7915 31.4387C28.3396 32.8411 30.061 34.3567 31.9557 35.9854L28.0045 39.8535ZM33.2727 10.2657C34.0583 10.2657 34.7169 10.0056 35.2483 9.48533C35.7797 8.96506 36.0455 8.32037 36.0455 7.55127C36.0455 6.78217 35.7797 6.13748 35.2483 5.6172C34.7169 5.09693 34.0583 4.83679 33.2727 4.83679C32.4871 4.83679 31.8286 5.09693 31.2972 5.6172C30.7657 6.13748 30.5 6.78217 30.5 7.55127C30.5 8.32037 30.7657 8.96506 31.2972 9.48533C31.8286 10.0056 32.4871 10.2657 33.2727 10.2657ZM42.2148 59.1263C41.1981 59.1263 40.193 58.9906 39.1994 58.7192C38.2059 58.4477 37.247 58.0179 36.3227 57.4298C36.8311 56.7964 37.3394 56.0499 37.8477 55.1903C38.3561 54.3307 38.8182 53.539 39.2341 52.8152C39.7424 53.1319 40.2508 53.3581 40.7591 53.4938C41.2674 53.6295 41.7758 53.6974 42.2841 53.6974C43.7629 53.6974 44.9991 53.1884 45.9926 52.1705C46.9862 51.1525 47.483 49.9423 47.483 48.5399C47.483 47.6803 47.2981 46.7528 46.9284 45.7575C46.5587 44.7622 46.1197 43.5407 45.6114 42.093L46.9284 39.9214C48.8693 39.5595 50.8911 39.0844 52.9938 38.4963C55.0964 37.9082 56.1477 36.3473 56.1477 33.8138C56.1477 32.0042 55.4661 30.6922 54.1028 29.8778C52.7396 29.0635 51.2492 28.6563 49.6318 28.6563C47.6909 28.6563 45.4265 29.0183 42.8386 29.7421C40.2508 30.466 37.2239 31.3934 33.758 32.5245L32.3023 27.2312C35.9068 26.1002 39.1186 25.1501 41.9375 24.381C44.7564 23.6119 47.3443 23.2274 49.7011 23.2274C52.8898 23.2274 55.6856 24.1548 58.0886 26.0097C60.4917 27.8646 61.6932 30.466 61.6932 33.8138C61.6932 34.9449 61.5199 36.0193 61.1733 37.0373C60.8267 38.0552 60.3299 39.0166 59.683 39.9214C61.6701 40.1476 63.3106 41.0411 64.6045 42.6019C65.8985 44.1628 66.5455 45.9159 66.5455 47.8612C66.5455 50.1233 65.7483 52.0461 64.154 53.6295C62.5597 55.213 60.5841 56.0047 58.2273 56.0047C57.0258 56.0047 55.8589 55.7445 54.7267 55.2243C53.5945 54.704 52.6587 53.9688 51.9193 53.0187C50.9951 54.9189 49.6896 56.4118 48.0028 57.4976C46.3161 58.5834 44.3867 59.1263 42.2148 59.1263ZM58.2966 50.5757C59.0822 50.5757 59.7292 50.3156 60.2375 49.7953C60.7458 49.275 61 48.6303 61 47.8612C61 47.0921 60.7343 46.4361 60.2028 45.8932C59.6714 45.3504 59.0129 45.0789 58.2273 45.0789C57.4417 45.0789 56.7831 45.339 56.2517 45.8593C55.7203 46.3796 55.4545 47.0243 55.4545 47.7934C55.4545 48.5625 55.7318 49.2185 56.2864 49.7614C56.8409 50.3043 57.511 50.5757 58.2966 50.5757Z" fill="white"/>
</g>
</svg>
