<svg width="62" height="62" viewBox="0 0 62 62" fill="none" xmlns="http://www.w3.org/2000/svg">
<mask id="mask0_7_219" style="mask-type:alpha" maskUnits="userSpaceOnUse" x="0" y="0" width="62" height="62">
<rect x="0.222229" y="0.703674" width="61" height="61" fill="white"/>
</mask>
<g mask="url(#mask0_7_219)">
<path d="M22.716 28.8613L26.4014 25.2533C26.9097 24.7556 27.1533 24.175 27.1321 23.5115C27.1109 22.8479 26.8674 22.2674 26.4014 21.7697C25.8931 21.272 25.2894 21.0128 24.5905 20.9921C23.8915 20.9714 23.2879 21.2098 22.7795 21.7075L17.2514 27.1195C16.7431 27.6171 16.4889 28.1977 16.4889 28.8613C16.4889 29.5248 16.7431 30.1054 17.2514 30.6031L22.7795 36.015C23.2879 36.5127 23.8915 36.7512 24.5905 36.7304C25.2894 36.7097 25.8931 36.4505 26.4014 35.9528C26.8674 35.4552 27.1109 34.8746 27.1321 34.2111C27.1533 33.5475 26.9097 32.9669 26.4014 32.4693L22.716 28.8613ZM38.7285 28.8613L35.0431 32.4693C34.5347 32.9669 34.2912 33.5475 34.3123 34.2111C34.3335 34.8746 34.5771 35.4552 35.0431 35.9528C35.5514 36.4505 36.155 36.7097 36.854 36.7304C37.553 36.7512 38.1566 36.5127 38.6649 36.015L44.1931 30.6031C44.7014 30.1054 44.9556 29.5248 44.9556 28.8613C44.9556 28.1977 44.7014 27.6171 44.1931 27.1195L38.6649 21.7075C38.1566 21.2098 37.553 20.9714 36.854 20.9921C36.155 21.0128 35.5514 21.272 35.0431 21.7697C34.5771 22.2674 34.3335 22.8479 34.3123 23.5115C34.2912 24.175 34.5347 24.7556 35.0431 25.2533L38.7285 28.8613ZM12.9306 51.2557C11.5326 51.2557 10.3359 50.7684 9.34046 49.7938C8.34497 48.8193 7.84723 47.6477 7.84723 46.2792V11.4434C7.84723 10.0748 8.34497 8.90327 9.34046 7.9287C10.3359 6.95412 11.5326 6.46684 12.9306 6.46684H23.6056C24.1563 4.97387 25.0776 3.77121 26.3696 2.85884C27.6616 1.94648 29.1125 1.4903 30.7222 1.4903C32.332 1.4903 33.7828 1.94648 35.0748 2.85884C36.3668 3.77121 37.2882 4.97387 37.8389 6.46684H48.5139C49.9118 6.46684 51.1085 6.95412 52.104 7.9287C53.0995 8.90327 53.5972 10.0748 53.5972 11.4434V46.2792C53.5972 47.6477 53.0995 48.8193 52.104 49.7938C51.1085 50.7684 49.9118 51.2557 48.5139 51.2557H12.9306ZM12.9306 46.2792H48.5139V11.4434H12.9306V46.2792ZM30.7222 9.57717C31.2729 9.57717 31.7283 9.40092 32.0884 9.04842C32.4484 8.69591 32.6285 8.2501 32.6285 7.71097C32.6285 7.17185 32.4484 6.72603 32.0884 6.37353C31.7283 6.02102 31.2729 5.84477 30.7222 5.84477C30.1715 5.84477 29.7162 6.02102 29.3561 6.37353C28.996 6.72603 28.816 7.17185 28.816 7.71097C28.816 8.2501 28.996 8.69591 29.3561 9.04842C29.7162 9.40092 30.1715 9.57717 30.7222 9.57717Z" fill="white"/>
</g>
</svg>
